<svg width="343" height="64" viewBox="0 0 343 64" fill="none" xmlns="http://www.w3.org/2000/svg">
<path d="M109.469 11.0508V48.4051H109.251L81.4142 11.0508H75.3047V54.8345H80.1701V17.4846H80.3878L108.332 54.8345H114.33V11.0508H109.469Z" fill="#040404"/>
<path d="M154.219 49.4306V22.4023H149.141V41.5927C149.141 44.5475 148.239 46.8535 146.439 48.5109C144.635 50.1682 142.129 50.9991 138.926 50.9991C135.722 50.9991 133.518 50.1948 131.896 48.5908C130.275 46.9913 129.466 44.6541 129.466 41.5927V22.4023H124.383V42.6724C124.383 46.5647 125.574 49.6661 127.951 51.9721C130.328 54.2782 133.536 55.429 137.575 55.429C140.165 55.429 142.445 54.9624 144.409 54.0249C146.373 53.0874 147.914 51.7366 149.034 49.9682H151.3V54.8336H156.925V49.4306H154.219Z" fill="#040404"/>
<path d="M211.708 25.1899C209.53 22.9372 206.491 21.8086 202.599 21.8086C197.302 21.8086 193.557 23.9547 191.357 28.2424H191.193C190.149 26.043 188.736 24.4212 186.954 23.3771C185.168 22.3329 183.013 21.8086 180.494 21.8086C177.974 21.8086 175.935 22.2796 174.166 23.2171C172.402 24.1546 171.087 25.5054 170.221 27.2693H167.519V22.404H161.898V27.8114H164.6V54.8352H169.683V35.2139C169.683 32.2947 170.43 30.073 171.922 28.5401C173.42 27.0072 175.593 26.243 178.436 26.243C184.31 26.243 187.247 29.2333 187.247 35.2139V54.8352H192.33V35.2139C192.33 29.2333 195.25 26.243 201.088 26.243C206.927 26.243 209.899 29.2333 209.899 35.2139V54.8352H214.978V34.5652C214.978 30.5662 213.889 27.4382 211.708 25.1899Z" fill="#040404"/>
<path d="M252.983 29.6451C251.65 27.1258 249.77 25.1796 247.336 23.8067C244.905 22.4382 241.995 21.7539 238.604 21.7539C235.214 21.7539 232.397 22.4471 229.931 23.8378C227.461 25.2241 225.559 27.1791 224.226 29.6984C222.893 32.2222 222.227 35.1947 222.227 38.6205C222.227 42.0462 222.902 45.0143 224.253 47.5381C225.608 50.0618 227.505 52.0168 229.958 53.4031C232.406 54.7894 235.29 55.4826 238.604 55.4826C241.919 55.4826 244.856 54.7983 247.309 53.4298C249.757 52.0613 251.65 50.1062 252.983 47.5647C254.316 45.0232 254.982 42.0418 254.982 38.6205C254.982 35.1992 254.316 32.1689 252.983 29.6451ZM246.931 47.7824C244.949 49.9596 242.172 51.0527 238.604 51.0527C235.037 51.0527 232.308 49.9596 230.309 47.7824C228.309 45.6008 227.31 42.5483 227.31 38.6205C227.31 34.6926 228.309 31.6357 230.309 29.4585C232.308 27.2769 235.072 26.1883 238.604 26.1883C242.137 26.1883 244.949 27.268 246.931 29.4318C248.913 31.5912 249.904 34.6571 249.904 38.6205C249.904 42.5838 248.913 45.6008 246.931 47.7824Z" fill="#040404"/>
<path d="M289.742 25.3765C287.324 22.9994 284.081 21.8086 280.011 21.8086C277.487 21.8086 275.243 22.2707 273.279 23.1904C271.315 24.1058 269.796 25.4698 268.712 27.2693H266.441V22.404H260.82V27.8114H263.526V54.8352H268.605V35.6493C268.605 32.5835 269.454 30.2508 271.146 28.6467C272.839 27.0472 275.274 26.243 278.442 26.243C281.61 26.243 284.094 27.0472 285.769 28.6467C287.444 30.2508 288.28 32.5835 288.28 35.6493V54.8352H293.363V34.8895C293.363 30.9261 292.154 27.7537 289.742 25.3765Z" fill="#040404"/>
<path d="M307.658 11.9972C307.027 11.3663 306.258 11.0508 305.361 11.0508C304.463 11.0508 303.69 11.3663 303.059 11.9972C302.433 12.6281 302.117 13.3968 302.117 14.2943C302.117 15.1919 302.433 15.965 303.059 16.5915C303.69 17.2224 304.459 17.5379 305.361 17.5379C306.263 17.5379 307.027 17.2224 307.658 16.5915C308.284 15.965 308.604 15.1963 308.604 14.2943C308.604 13.3924 308.284 12.6281 307.658 11.9972ZM302.819 22.4033V54.8345H307.898V22.4033H302.819Z" fill="#040404"/>
<path d="M340.597 39.7535C339.157 38.3139 336.886 37.3053 333.785 36.7276L326.76 35.4302C324.85 35.0703 323.472 34.5371 322.623 33.8351C321.779 33.1331 321.353 32.1689 321.353 30.9425C321.353 29.3208 322.001 28.0855 323.299 27.2413C324.596 26.3971 326.454 25.9705 328.866 25.9705C331.279 25.9705 333.354 26.4326 334.758 27.3479C336.167 28.2677 337.064 29.6807 337.46 31.5912H342.436C342.076 28.4943 340.712 26.0772 338.353 24.3488C335.993 22.6203 332.847 21.7539 328.924 21.7539C325.001 21.7539 322.09 22.6026 319.895 24.2954C317.696 25.9883 316.598 28.2944 316.598 31.2136C316.598 35.7546 319.535 38.5627 325.409 39.6468L332.488 40.9443C334.509 41.3042 335.94 41.8729 336.789 42.646C337.633 43.4236 338.055 44.53 338.055 45.9696C338.055 49.502 335.3 51.2659 329.786 51.2659C326.725 51.2659 324.401 50.7638 322.815 49.7552C321.228 48.7466 320.308 47.1959 320.055 45.1076H314.977C315.225 48.3867 316.634 50.9327 319.193 52.7544C321.748 54.5761 325.227 55.4826 329.626 55.4826C334.025 55.4826 337.082 54.6206 339.352 52.8877C341.623 51.1593 342.76 48.7288 342.76 45.5919C342.76 43.1437 342.036 41.1975 340.597 39.7535Z" fill="#040404"/>
<path d="M48.0082 4.27919C32.7227 -4.54067 13.1072 0.712841 4.28251 15.9978C-4.54218 31.2829 0.711479 50.8932 15.9969 59.7176C31.2824 68.542 50.8933 63.2885 59.718 48.0035C68.5427 32.7185 63.289 13.1082 48.0036 4.28376L48.0082 4.27919ZM20.6973 24.9914L18.2054 29.3122L20.3636 30.5604L10.3043 47.9807C9.33498 46.6593 8.48909 45.2648 7.78038 43.8017L26.9021 10.6849L27.0941 10.7946L32.837 58.922C31.479 58.9678 30.1119 58.9129 28.7447 58.7483L25.8047 33.697L22.5217 31.8041L25.0137 27.4833L20.6928 24.9914H20.6973ZM53.7328 16.0664C54.6884 17.3741 55.5251 18.7549 56.2247 20.1952L37.103 53.3165L36.911 53.2068L31.3235 5.59599L30.4777 5.10677C32.3066 5.0016 34.1493 5.07933 35.9828 5.35367L38.8634 29.4951L44.2085 32.5814L53.7373 16.0756L53.7328 16.0664ZM50.2212 12.1434L43.1797 24.3422L42.9877 24.2325L40.9118 6.56988C42.471 7.11398 43.9982 7.80439 45.4796 8.6594C47.2171 9.66529 48.7992 10.8404 50.2212 12.1434ZM8.66284 18.5217C12.1058 12.5549 17.5058 8.40792 23.5917 6.40985L5.63593 37.5057C4.32366 31.2417 5.21527 24.4885 8.66284 18.5217ZM13.8251 51.8945L21.3878 38.795L21.5798 38.9048L23.8203 57.6738C22.0142 57.0977 20.2355 56.325 18.53 55.3374C16.8245 54.3498 15.2425 53.1793 13.8296 51.8899L13.8251 51.8945ZM40.418 57.587L58.3692 26.4911C59.6814 32.7551 58.7898 39.5083 55.3422 45.4751C51.8992 51.4419 46.4993 55.5889 40.4134 57.587H40.418Z" fill="#797E5D"/>
</svg>
